<?xml version="1.0" standalone="no"?>
<!DOCTYPE svg PUBLIC "-//W3C//DTD SVG 20010904//EN"
 "http://www.w3.org/TR/2001/REC-SVG-20010904/DTD/svg10.dtd">
<svg version="1.0" xmlns="http://www.w3.org/2000/svg"
 width="180.000000pt" height="180.000000pt" viewBox="0 0 180.000000 180.000000"
 preserveAspectRatio="xMidYMid meet">
<metadata>
Created by potrace 1.14, written by Peter Selinger 2001-2017
</metadata>
<g transform="translate(0.000000,180.000000) scale(0.100000,-0.100000)"
fill="#000000" stroke="none">
<path d="M0 1050 l0 -750 23 -1 c12 -1 34 -2 48 -2 14 -1 26 -7 26 -14 0 -6
-4 -10 -9 -7 -4 3 -8 0 -8 -6 0 -6 -5 -8 -11 -4 -8 5 -10 -12 -7 -59 4 -62 3
-66 -17 -64 -18 2 -20 -3 -17 -40 3 -32 0 -45 -12 -49 -9 -3 -16 -17 -16 -30
l0 -24 625 0 625 0 0 25 c0 14 5 25 11 25 7 0 9 -10 6 -25 l-4 -26 174 3 c139
2 170 5 157 15 -14 11 -15 18 -3 65 7 29 12 60 11 70 0 9 9 18 20 21 16 5 19
11 14 31 -5 20 -3 24 9 20 8 -4 16 -11 16 -18 1 -6 2 -17 3 -25 0 -8 7 -16 15
-19 10 -3 13 2 9 22 -4 21 -3 24 8 15 8 -6 14 -20 14 -30 0 -10 4 -21 10 -24
5 -3 10 1 10 9 0 9 4 16 9 16 11 0 21 -26 20 -48 -1 -10 -4 -7 -9 8 -5 16 -8
19 -9 8 -1 -9 -6 -20 -13 -24 -7 -5 -8 -3 -3 6 5 8 3 11 -6 8 -14 -5 -22 -28
-32 -91 -6 -39 9 -53 16 -14 l4 22 2 -22 c1 -20 7 -23 40 -23 35 0 39 3 45 31
3 17 6 422 6 900 l0 869 -900 0 -900 0 0 -750z m1102 446 c14 -1 24 -4 21 -8
-2 -5 3 -8 11 -8 9 0 16 -4 16 -10 0 -5 13 -10 28 -10 16 0 37 -9 47 -20 10
-11 15 -20 12 -20 -3 0 1 -16 9 -35 7 -19 14 -51 14 -71 0 -29 3 -35 16 -30
13 5 14 1 8 -27 -4 -17 -7 -41 -6 -53 1 -17 -3 -20 -23 -16 -14 2 -25 9 -25
14 0 6 -10 8 -22 4 -13 -3 -40 0 -61 6 -32 10 -40 9 -48 -3 -8 -11 -13 -10
-31 11 -14 16 -22 21 -25 12 -6 -17 -23 -5 -23 16 0 12 -9 17 -32 19 -222 12
-246 17 -239 57 1 5 -4 13 -11 17 -10 6 -9 13 2 33 17 33 29 33 22 1 -5 -31 4
-32 33 -2 38 38 84 75 89 70 3 -3 17 -2 31 1 18 5 25 12 21 21 -5 15 4 19 37
16 9 -1 17 2 17 8 0 11 48 20 70 13 8 -3 27 -6 42 -6z m-385 -188 c-3 -8 -6
-5 -6 6 -1 11 2 17 5 13 3 -3 4 -12 1 -19z m590 -105 c-3 -10 -5 -4 -5 12 0
17 2 24 5 18 2 -7 2 -21 0 -30z m-707 -11 c0 -15 -2 -15 -10 -2 -13 20 -13 33
0 25 6 -3 10 -14 10 -23z m-28 -44 c-7 -7 -12 -8 -12 -2 0 14 12 26 19 19 2
-3 -1 -11 -7 -17z m159 -18 c7 -20 18 -30 31 -30 10 0 36 -11 56 -25 21 -14
51 -25 69 -25 18 0 33 -4 33 -10 0 -5 -7 -10 -16 -10 -27 0 -84 -32 -77 -43 4
-6 0 -8 -10 -4 -11 4 -17 1 -17 -7 0 -25 -39 -5 -61 30 -11 19 -24 34 -29 34
-6 0 -7 50 -1 108 2 21 12 13 22 -18z m340 -40 c10 -37 10 -100 0 -100 -5 0
-7 -9 -4 -20 4 -16 2 -19 -11 -14 -9 3 -16 1 -16 -6 0 -7 -6 -5 -16 5 -9 9
-13 19 -10 23 4 3 11 1 15 -6 5 -9 11 -5 19 13 15 34 15 40 -1 26 -8 -6 -18
-7 -22 -3 -5 4 -5 1 0 -6 5 -10 2 -13 -11 -10 -15 3 -19 13 -19 50 -1 26 2 45
6 42 4 -2 9 6 12 17 8 30 49 22 58 -11z m-501 -52 c0 -4 -5 -8 -11 -8 -6 0 -9
-9 -6 -20 3 -11 1 -18 -4 -14 -15 9 -10 51 6 51 8 0 15 -4 15 -9z m670 -29 c0
-6 6 -9 13 -6 8 3 12 -9 13 -38 l2 -43 -45 3 c-24 1 -45 4 -46 6 -1 2 -8 15
-15 28 -15 26 -8 39 25 44 13 2 26 6 29 10 11 11 24 8 24 -4z m-285 -9 c-3 -5
-1 -10 4 -10 6 0 11 -5 11 -10 0 -7 -7 -7 -20 0 -20 11 -19 30 1 30 6 0 7 -4
4 -10z m-3 -145 c3 0 10 -4 15 -8 4 -5 -3 -7 -16 -5 -14 1 -26 9 -29 17 -3 10
0 11 9 5 8 -5 17 -9 21 -9z m-293 -375 c11 -24 11 -24 -3 -6 -9 11 -16 24 -16
30 0 12 5 7 19 -24z m-149 -2 c0 -13 7 -36 15 -52 9 -16 17 -37 18 -45 2 -9 8
-26 15 -38 12 -22 6 -79 -9 -89 -13 -7 -11 30 1 42 8 8 7 19 -1 37 -13 28 -39
44 -39 24 0 -8 -4 -6 -10 3 -13 21 -12 33 2 24 8 -5 9 -2 5 10 -4 10 -7 21 -7
26 0 5 -7 16 -16 24 -8 9 -11 16 -5 16 6 0 11 9 11 20 0 11 5 20 10 20 6 0 10
-10 10 -22z m175 -38 c3 -5 1 -10 -4 -10 -6 0 -11 5 -11 10 0 6 2 10 4 10 3 0
8 -4 11 -10z m568 -10 c-3 -12 -8 -19 -11 -16 -5 6 5 36 12 36 2 0 2 -9 -1
-20z m-696 -12 c-3 -8 -6 -5 -6 6 -1 11 2 17 5 13 3 -3 4 -12 1 -19z m216 -20
c10 2 17 -4 17 -12 0 -12 5 -14 26 -6 34 13 37 13 30 -5 -3 -9 0 -15 10 -15 8
0 17 -7 20 -15 4 -10 20 -15 48 -15 l41 -1 -54 -26 c-42 -20 -58 -24 -71 -15
-13 8 -21 7 -30 -1 -10 -10 -12 -8 -6 7 3 10 1 25 -5 32 -6 7 -7 19 -3 26 4 7
4 10 0 6 -10 -8 -66 55 -66 73 0 8 6 3 13 -11 8 -15 20 -24 30 -22z m127 22
c0 -5 -8 -10 -17 -10 -15 0 -16 2 -3 10 19 12 20 12 20 0z m421 -54 c15 -16
10 -42 -11 -61 -20 -18 -20 -17 -20 17 0 20 3 51 7 69 7 31 8 32 11 9 2 -14 8
-29 13 -34z m-266 35 c3 -5 1 -12 -5 -16 -5 -3 -10 1 -10 9 0 18 6 21 15 7z
m185 -11 c0 -5 -5 -10 -11 -10 -5 0 -7 5 -4 10 3 6 8 10 11 10 2 0 4 -4 4 -10z
m-300 -4 c0 -9 -30 -14 -35 -6 -4 6 3 10 14 10 12 0 21 -2 21 -4z m-560 -38
c-3 -48 -2 -50 20 -38 19 10 20 7 22 -50 1 -33 2 -68 2 -77 1 -12 -6 -18 -19
-18 -17 0 -20 -8 -23 -48 -4 -59 -27 -60 -27 -1 0 34 -3 39 -24 42 -19 3 -21
6 -10 13 8 5 10 9 4 9 -6 0 -10 25 -9 57 0 49 3 57 23 65 19 7 22 13 18 37 -6
29 -1 41 15 41 5 0 9 -15 8 -32z m-80 -3 c0 -10 -10 -15 -30 -15 -29 0 -38 9
-23 23 13 13 53 7 53 -8z m910 -12 c0 -19 -3 -24 -10 -17 -6 6 -8 18 -4 27 9
24 14 21 14 -10z m-990 11 c0 -3 -5 -14 -10 -25 -10 -18 -7 -19 39 -19 l49 0
-1 -114 -2 -114 -31 -4 c-44 -5 -78 5 -82 26 -2 10 2 17 10 15 7 -1 27 0 43 1
25 3 23 4 -15 10 l-45 7 55 3 55 3 -55 6 -55 6 -3 65 c-2 35 1 73 7 85 5 11
12 28 15 38 5 15 26 25 26 11z m483 -1 c9 -9 -13 -34 -24 -27 -14 8 -11 34 4
34 8 0 17 -3 20 -7z m817 -40 c12 -12 7 -11 -20 2 -45 22 -52 29 -20 20 14 -4
32 -14 40 -22z m-1242 10 c-10 -2 -26 -2 -35 0 -10 3 -2 5 17 5 19 0 27 -2 18
-5z m726 -22 c-1 -19 4 -22 23 -18 29 5 30 -1 1 -13 -23 -9 -23 -9 2 -11 24
-1 23 -2 -5 -9 -16 -4 -39 -8 -50 -8 l-20 -1 20 9 c14 6 15 9 4 9 -8 1 -20 -4
-27 -11 -14 -14 -17 -11 -27 21 -6 20 -4 23 9 18 9 -4 15 -2 13 3 -3 11 35 40
48 36 6 -2 10 -13 9 -25z m-881 -16 c-3 -9 -8 -14 -10 -11 -3 3 -2 9 2 15 9
16 15 13 8 -4z m517 -4 c0 -11 4 -21 10 -23 6 -2 7 -15 2 -32 -7 -25 -9 -26
-21 -12 -8 9 -9 16 -3 16 7 0 8 11 1 32 -11 40 -11 38 1 38 6 0 10 -9 10 -19z
m726 -33 c-3 -24 -5 -44 -5 -46 -1 -2 -5 -1 -11 3 -5 3 -6 13 -3 23 5 15 4 15
-9 2 -8 -8 -23 -43 -34 -78 -10 -34 -22 -62 -26 -62 -14 0 -19 20 -9 38 6 11
11 36 13 56 2 41 10 50 51 60 18 4 27 13 27 26 0 11 2 20 6 20 3 0 3 -19 0
-42z m131 -8 c3 -10 2 -11 -4 -4 -4 6 -15 14 -23 17 -11 5 -9 6 4 4 11 -1 21
-9 23 -17z m-897 -27 l22 -38 -26 24 c-14 14 -26 30 -26 38 0 21 7 16 30 -24z
m947 31 c-3 -3 -12 -4 -19 -1 -8 3 -5 6 6 6 11 1 17 -2 13 -5z m-847 -43 c0
-21 -13 -4 -17 22 -2 17 -1 19 7 7 5 -8 10 -21 10 -29z m-129 -3 c6 -11 8 -22
5 -26 -3 -3 -6 0 -6 7 0 6 -8 11 -17 9 -12 -2 -19 4 -21 19 -3 18 0 21 13 17
8 -4 20 -15 26 -26z m171 -10 c-6 -6 -7 0 -4 19 5 21 7 23 10 9 2 -10 0 -22
-6 -28z m648 28 c0 -3 -4 -8 -10 -11 -5 -3 -10 -1 -10 4 0 6 5 11 10 11 6 0
10 -2 10 -4z m189 -41 c0 -5 -6 -39 -13 -75 -11 -61 -14 -65 -41 -68 -23 -3
-49 5 -83 24 -3 2 15 106 23 140 4 14 115 -6 114 -21z m-905 -14 c-9 -10 -26
18 -18 30 5 9 9 8 14 -7 4 -10 6 -21 4 -23z m676 9 c0 -5 -5 -10 -11 -10 -5 0
-7 5 -4 10 3 6 8 10 11 10 2 0 4 -4 4 -10z m-131 -22 c-16 -31 -16 -31 -23
-13 -3 9 -2 14 3 11 5 -3 11 1 15 9 3 8 8 15 11 15 3 0 0 -10 -6 -22z m-648
-12 c5 3 9 0 9 -5 0 -6 -6 -11 -12 -12 -7 -1 -2 -5 12 -10 l25 -8 -25 2 c-19
1 -26 8 -27 27 -1 14 0 19 3 12 3 -6 10 -10 15 -6z m584 -5 c-3 -5 0 -13 6
-16 6 -5 3 -13 -11 -22 -20 -14 -23 -13 -41 5 -11 12 -15 23 -9 27 6 3 10 1
10 -4 0 -17 27 -13 34 4 3 8 8 15 11 15 4 0 4 -4 0 -9z m152 -33 c-3 -8 -6 -5
-6 6 -1 11 2 17 5 13 3 -3 4 -12 1 -19z m20 -10 c-3 -8 -6 -5 -6 6 -1 11 2 17
5 13 3 -3 4 -12 1 -19z m-577 -15 c0 -13 -3 -13 -15 -3 -8 7 -12 16 -9 21 8
13 24 1 24 -18z m323 -18 c-3 -9 -8 -14 -10 -11 -3 3 -2 9 2 15 9 16 15 13 8
-4z m-440 -2 c-13 -2 -35 -2 -50 0 -16 2 -5 4 22 4 28 0 40 -2 28 -4z m-328
-13 c-3 -5 -16 -10 -28 -9 -21 0 -21 1 -2 9 28 12 37 12 30 0z m82 4 c-3 -3
-12 -4 -19 -1 -8 3 -5 6 6 6 11 1 17 -2 13 -5z m663 -4 c0 -5 -5 -10 -11 -10
-5 0 -7 5 -4 10 3 6 8 10 11 10 2 0 4 -4 4 -10z m-817 -7 c-7 -2 -21 -2 -30 0
-10 3 -4 5 12 5 17 0 24 -2 18 -5z m1237 -3 c0 -5 -7 -10 -15 -10 -8 0 -15 5
-15 10 0 6 7 10 15 10 8 0 15 -4 15 -10z"/>
<path d="M827 1309 c7 -7 15 -10 18 -7 3 3 -2 9 -12 12 -14 6 -15 5 -6 -5z"/>
<path d="M400 269 c0 -5 -4 -7 -10 -4 -5 3 -10 -1 -10 -10 0 -9 5 -13 10 -10
6 3 10 -1 10 -10 0 -9 -4 -13 -10 -10 -5 3 -10 -1 -10 -9 0 -9 7 -16 15 -16
11 0 15 11 15 40 0 22 -2 40 -5 40 -3 0 -5 -5 -5 -11z"/>
<path d="M29 254 c-3 -24 4 -60 13 -69 6 -7 7 4 2 30 -7 40 -13 56 -15 39z"/>
<path d="M1673 132 c-7 -4 -14 -32 -17 -61 -2 -30 -10 -57 -17 -62 -10 -6 -8
-9 7 -9 17 0 23 8 28 35 4 20 4 39 1 44 -3 5 0 11 6 13 6 2 9 14 7 26 -2 14
-7 19 -15 14z"/>
</g>
</svg>
